<svg xmlns="http://www.w3.org/2000/svg" xmlns:xlink="http://www.w3.org/1999/xlink" width="500" zoomAndPan="magnify" viewBox="0 0 375 374.999991" height="500" preserveAspectRatio="xMidYMid meet" version="1.0"><defs><g/><clipPath id="6bba831f87"><path d="M 82.828125 57.789062 L 292.078125 57.789062 L 292.078125 266.289062 L 82.828125 266.289062 Z M 82.828125 57.789062 " clip-rule="nonzero"/></clipPath></defs><path fill="#604d49" d="M 250.566406 259.050781 C 233.167969 262.160156 211.277344 264.015625 187.496094 264.015625 C 130.8125 264.015625 84.855469 253.480469 84.855469 240.484375 C 84.855469 232.285156 103.160156 225.0625 130.917969 220.851562 C 141.148438 232.753906 159.558594 243.832031 191.332031 243.832031 C 216.890625 243.832031 232.898438 234.027344 242.855469 220.667969 C 271.292969 224.851562 290.140625 232.164062 290.140625 240.484375 C 290.140625 248.03125 274.652344 254.746094 250.566406 259.050781 Z M 250.566406 259.050781 " fill-opacity="1" fill-rule="nonzero"/><g clip-path="url(#6bba831f87)"><path fill="#3a2f2e" d="M 278.117188 227.164062 C 270.320312 223.929688 259.289062 221.144531 246.105469 219.070312 C 249.699219 213.683594 252.648438 207.5 254.90625 200.605469 C 257.421875 192.925781 259.089844 184.351562 259.863281 175.113281 C 261.183594 159.414062 259.496094 147.398438 259.425781 146.894531 C 259.289062 145.945312 258.40625 145.285156 257.457031 145.421875 C 256.503906 145.558594 255.84375 146.441406 255.980469 147.390625 C 256 147.511719 257.683594 159.515625 256.398438 174.820312 C 255.21875 188.871094 251.214844 208.609375 238.859375 222.867188 C 227.804688 235.625 211.816406 242.09375 191.335938 242.09375 C 151.496094 242.09375 134.1875 224.457031 127.035156 212.5 C 127 212.433594 126.960938 212.367188 126.921875 212.300781 C 129.316406 211.621094 132.007812 210.535156 134.523438 209.199219 C 137.925781 207.390625 142.65625 204.277344 145.847656 199.6875 C 149.050781 195.085938 150.003906 190.082031 148.6875 184.8125 C 147.589844 180.417969 145.011719 177.667969 141.613281 177.265625 C 138.582031 176.90625 135.441406 178.460938 132.851562 181.457031 C 131.765625 177.921875 129.421875 175.199219 126.347656 174.171875 C 122.480469 172.875 118.328125 174.59375 115.242188 178.765625 C 108.949219 187.28125 116.121094 200.699219 121.304688 209.589844 C 118.667969 209.457031 115.800781 208.480469 112.90625 206.714844 C 100.484375 199.136719 86.953125 180.632812 86.609375 165.171875 C 86.496094 160.203125 87.199219 155.300781 88.582031 151.371094 C 90.199219 146.777344 92.65625 143.53125 95.890625 141.726562 C 98.789062 140.109375 102.351562 139.667969 106.480469 140.414062 C 111.34375 141.289062 117.015625 143.8125 123.335938 147.910156 C 129.519531 151.917969 137.421875 155.097656 146.820312 157.359375 C 155.449219 159.433594 165.09375 160.691406 175.488281 161.089844 C 177.867188 161.179688 180.257812 161.222656 182.648438 161.222656 C 200.171875 161.222656 217.746094 158.804688 231.777344 154.390625 C 241.742188 151.253906 254.378906 145.65625 257.980469 136.804688 C 258.824219 134.726562 259.167969 131.597656 256.003906 128.488281 C 252.34375 124.886719 244.574219 122.015625 232.90625 119.957031 C 222.707031 118.15625 209.953125 117.054688 196.015625 116.769531 C 190.613281 116.660156 185.128906 116.679688 179.742188 116.824219 C 181.054688 113.460938 184.148438 111.222656 187.992188 108.449219 C 192.628906 105.09375 198.402344 100.921875 202.503906 93.285156 C 205.714844 87.308594 206.828125 81.019531 205.71875 75.105469 C 204.714844 69.71875 201.921875 65.011719 197.855469 61.847656 C 194.367188 59.132812 190.277344 57.792969 186.035156 57.980469 C 181.457031 58.179688 176.960938 60.1875 173.023438 63.789062 C 169.476562 67.035156 167.570312 70.964844 167.515625 75.15625 C 167.46875 78.726562 168.765625 82.320312 171.175781 85.269531 C 175.445312 90.5 181.652344 92.039062 185.929688 88.929688 C 186.707031 88.363281 186.878906 87.277344 186.316406 86.496094 C 185.75 85.71875 184.660156 85.546875 183.882812 86.113281 C 180.78125 88.367188 176.5 86.285156 173.871094 83.066406 C 170.566406 79.015625 168.972656 72.210938 175.371094 66.359375 C 183.035156 59.347656 190.90625 60.851562 195.71875 64.597656 C 201.914062 69.417969 205.71875 79.9375 199.4375 91.640625 C 195.714844 98.570312 190.527344 102.320312 185.953125 105.625 C 181.582031 108.785156 177.398438 111.8125 176.039062 116.941406 C 169.484375 117.1875 163.128906 117.617188 157.292969 118.21875 C 144.730469 119.519531 134.929688 121.550781 128.941406 124.101562 C 123.925781 126.234375 121.402344 128.847656 121.4375 131.867188 C 121.46875 134.613281 123.332031 137.042969 126.980469 139.089844 C 131.796875 141.789062 139.789062 143.929688 150.746094 145.453125 C 160.476562 146.808594 171.996094 147.582031 184.054688 147.695312 C 203.339844 147.878906 229.03125 146.195312 237.980469 140.867188 C 240.363281 139.445312 241.558594 137.753906 241.53125 135.839844 C 241.507812 134.210938 240.898438 132.835938 239.726562 131.753906 C 235.726562 128.066406 225.53125 128.742188 213.722656 129.527344 C 205.359375 130.082031 196.714844 130.65625 189.996094 129.691406 C 180.753906 128.359375 179.363281 124.617188 179.125 121.914062 C 179.074219 121.355469 179.054688 120.824219 179.070312 120.316406 C 184.550781 120.160156 190.21875 120.132812 195.949219 120.25 C 209.710938 120.53125 222.28125 121.613281 232.304688 123.382812 C 245.957031 125.792969 251.402344 128.835938 253.566406 130.96875 C 255.0625 132.441406 255.433594 133.835938 254.757812 135.492188 C 252.347656 141.421875 243.816406 146.953125 230.738281 151.066406 C 215.15625 155.96875 195.066406 158.355469 175.625 157.609375 C 154.441406 156.796875 136.542969 152.3125 125.238281 144.984375 C 112.242188 136.5625 101.796875 134.445312 94.199219 138.683594 C 90.203125 140.914062 87.210938 144.792969 85.304688 150.214844 C 83.355469 155.746094 83.050781 161.441406 83.132812 165.246094 C 83.363281 175.519531 88.398438 185.046875 92.582031 191.234375 C 97.824219 198.976562 104.574219 205.703125 111.101562 209.683594 C 115.265625 212.226562 119.484375 213.375 123.320312 213.015625 C 124.421875 214.984375 125.792969 217.128906 127.484375 219.351562 C 114.757812 221.441406 104.113281 224.199219 96.570312 227.367188 C 87.464844 231.191406 82.851562 235.605469 82.851562 240.480469 C 82.851562 244.453125 85.921875 248.128906 91.972656 251.410156 C 97.300781 254.296875 104.875 256.878906 114.480469 259.078125 C 134.007812 263.554688 159.945312 266.023438 187.507812 266.023438 C 215.070312 266.023438 241.003906 263.554688 260.535156 259.078125 C 270.140625 256.878906 277.710938 254.296875 283.042969 251.410156 C 289.09375 248.128906 292.160156 244.453125 292.160156 240.480469 C 292.152344 235.511719 287.429688 231.027344 278.117188 227.164062 Z M 180.183594 129.972656 C 182.4375 131.523438 185.484375 132.5625 189.496094 133.140625 C 196.574219 134.160156 205.410156 133.570312 213.949219 133.003906 C 219.488281 132.636719 224.722656 132.289062 228.996094 132.425781 C 233.332031 132.558594 236.148438 133.199219 237.363281 134.316406 C 237.824219 134.742188 238.035156 135.230469 238.046875 135.894531 C 238.054688 136.449219 237.378906 137.171875 236.191406 137.878906 C 229.441406 141.898438 208.5 144.445312 184.082031 144.21875 C 158.460938 143.980469 137.230469 140.851562 128.679688 136.054688 C 126.972656 135.097656 124.929688 133.589844 124.914062 131.832031 C 124.898438 130.421875 126.859375 128.773438 130.300781 127.308594 C 138.757812 123.707031 155.761719 121.210938 175.578125 120.4375 C 175.574219 121.007812 175.597656 121.605469 175.652344 122.226562 C 175.941406 125.496094 177.46875 128.101562 180.183594 129.972656 Z M 118.042969 180.839844 C 119.777344 178.488281 121.804688 177.234375 123.769531 177.234375 C 124.265625 177.234375 124.757812 177.3125 125.238281 177.472656 C 128.101562 178.429688 130.074219 182 130.035156 186.152344 C 130.027344 186.953125 130.570312 187.660156 131.351562 187.855469 C 132.132812 188.050781 132.945312 187.6875 133.316406 186.972656 C 135.464844 182.859375 138.558594 180.40625 141.199219 180.722656 C 143.109375 180.949219 144.570312 182.699219 145.308594 185.652344 C 146.371094 189.90625 145.589844 193.957031 142.988281 197.699219 C 138.566406 204.050781 130.027344 207.960938 125.097656 209.175781 C 120.339844 201.089844 112.777344 187.960938 118.042969 180.839844 Z M 281.113281 247.875 C 276.105469 250.589844 268.875 253.042969 259.625 255.160156 C 240.382812 259.570312 214.765625 262 187.5 262 C 160.230469 262 134.613281 259.570312 115.371094 255.160156 C 106.121094 253.039062 98.894531 250.589844 93.882812 247.875 C 89.296875 245.386719 86.871094 242.835938 86.871094 240.484375 C 86.871094 237.472656 90.867188 234.132812 98.121094 231.085938 C 105.828125 227.847656 117.007812 225.042969 130.460938 222.960938 C 140.433594 234.039062 158.664062 245.574219 191.332031 245.574219 C 212.871094 245.574219 229.746094 238.703125 241.488281 225.148438 C 242.164062 224.367188 242.824219 223.566406 243.464844 222.742188 C 257.234375 224.796875 268.675781 227.605469 276.578125 230.886719 C 284.027344 233.976562 288.128906 237.386719 288.128906 240.488281 C 288.125 242.832031 285.699219 245.386719 281.113281 247.875 Z M 281.113281 247.875 " fill-opacity="1" fill-rule="nonzero"/></g><g fill="#000000" fill-opacity="1"><g transform="translate(93.525772, 313.405635)"><g><path d="M 7.515625 -12.078125 C 6.046875 -12.078125 4.890625 -11.59375 4.046875 -10.625 C 3.203125 -9.65625 2.78125 -8.328125 2.78125 -6.640625 C 2.78125 -4.898438 3.1875 -3.554688 4 -2.609375 C 4.820312 -1.660156 5.984375 -1.1875 7.484375 -1.1875 C 8.410156 -1.1875 9.46875 -1.351562 10.65625 -1.6875 L 10.65625 -0.328125 C 9.738281 0.015625 8.601562 0.1875 7.25 0.1875 C 5.300781 0.1875 3.796875 -0.40625 2.734375 -1.59375 C 1.671875 -2.78125 1.140625 -4.46875 1.140625 -6.65625 C 1.140625 -8.019531 1.394531 -9.21875 1.90625 -10.25 C 2.414062 -11.28125 3.148438 -12.070312 4.109375 -12.625 C 5.078125 -13.1875 6.21875 -13.46875 7.53125 -13.46875 C 8.914062 -13.46875 10.128906 -13.210938 11.171875 -12.703125 L 10.515625 -11.375 C 9.515625 -11.84375 8.515625 -12.078125 7.515625 -12.078125 Z M 7.515625 -12.078125 "/></g></g></g><g fill="#000000" fill-opacity="1"><g transform="translate(112.28405, 313.405635)"><g><path d="M 7.71875 0 L 7.421875 -1.421875 L 7.34375 -1.421875 C 6.84375 -0.796875 6.347656 -0.367188 5.859375 -0.140625 C 5.367188 0.078125 4.753906 0.1875 4.015625 0.1875 C 3.023438 0.1875 2.25 -0.0664062 1.6875 -0.578125 C 1.132812 -1.085938 0.859375 -1.8125 0.859375 -2.75 C 0.859375 -4.757812 2.460938 -5.8125 5.671875 -5.90625 L 7.359375 -5.96875 L 7.359375 -6.578125 C 7.359375 -7.359375 7.191406 -7.9375 6.859375 -8.3125 C 6.523438 -8.6875 5.988281 -8.875 5.25 -8.875 C 4.414062 -8.875 3.476562 -8.617188 2.4375 -8.109375 L 1.96875 -9.265625 C 2.457031 -9.523438 2.992188 -9.726562 3.578125 -9.875 C 4.160156 -10.03125 4.75 -10.109375 5.34375 -10.109375 C 6.53125 -10.109375 7.40625 -9.84375 7.96875 -9.3125 C 8.539062 -8.789062 8.828125 -7.953125 8.828125 -6.796875 L 8.828125 0 Z M 4.3125 -1.0625 C 5.25 -1.0625 5.984375 -1.316406 6.515625 -1.828125 C 7.054688 -2.347656 7.328125 -3.070312 7.328125 -4 L 7.328125 -4.890625 L 5.8125 -4.828125 C 4.613281 -4.785156 3.75 -4.597656 3.21875 -4.265625 C 2.695312 -3.941406 2.4375 -3.429688 2.4375 -2.734375 C 2.4375 -2.191406 2.597656 -1.773438 2.921875 -1.484375 C 3.253906 -1.203125 3.71875 -1.0625 4.3125 -1.0625 Z M 4.3125 -1.0625 "/></g></g></g><g fill="#000000" fill-opacity="1"><g transform="translate(129.653438, 313.405635)"><g><path d="M 6.078125 -8.78125 L 3.546875 -8.78125 L 3.546875 0 L 2.046875 0 L 2.046875 -8.78125 L 0.265625 -8.78125 L 0.265625 -9.453125 L 2.046875 -10 L 2.046875 -10.5625 C 2.046875 -13.007812 3.113281 -14.234375 5.25 -14.234375 C 5.769531 -14.234375 6.382812 -14.125 7.09375 -13.90625 L 6.703125 -12.703125 C 6.128906 -12.890625 5.632812 -12.984375 5.21875 -12.984375 C 4.644531 -12.984375 4.222656 -12.789062 3.953125 -12.40625 C 3.679688 -12.03125 3.546875 -11.425781 3.546875 -10.59375 L 3.546875 -9.953125 L 6.078125 -9.953125 Z M 6.078125 -8.78125 "/></g></g></g><g fill="#000000" fill-opacity="1"><g transform="translate(142.983244, 313.405635)"><g><path d="M 5.796875 0.1875 C 4.328125 0.1875 3.164062 -0.257812 2.3125 -1.15625 C 1.46875 -2.050781 1.046875 -3.296875 1.046875 -4.890625 C 1.046875 -6.492188 1.4375 -7.765625 2.21875 -8.703125 C 3.007812 -9.648438 4.070312 -10.125 5.40625 -10.125 C 6.65625 -10.125 7.640625 -9.710938 8.359375 -8.890625 C 9.085938 -8.078125 9.453125 -7 9.453125 -5.65625 L 9.453125 -4.703125 L 2.609375 -4.703125 C 2.640625 -3.535156 2.929688 -2.648438 3.484375 -2.046875 C 4.046875 -1.441406 4.835938 -1.140625 5.859375 -1.140625 C 6.929688 -1.140625 7.988281 -1.363281 9.03125 -1.8125 L 9.03125 -0.46875 C 8.5 -0.238281 7.992188 -0.0703125 7.515625 0.03125 C 7.046875 0.132812 6.472656 0.1875 5.796875 0.1875 Z M 5.390625 -8.875 C 4.585938 -8.875 3.945312 -8.613281 3.46875 -8.09375 C 3 -7.570312 2.722656 -6.847656 2.640625 -5.921875 L 7.84375 -5.921875 C 7.84375 -6.878906 7.628906 -7.609375 7.203125 -8.109375 C 6.785156 -8.617188 6.179688 -8.875 5.390625 -8.875 Z M 5.390625 -8.875 "/></g></g></g><g fill="#000000" fill-opacity="1"><g transform="translate(160.443409, 313.405635)"><g/></g></g><g fill="#000000" fill-opacity="1"><g transform="translate(172.302626, 313.405635)"><g><path d="M 3.765625 -10.625 C 3.765625 -10.207031 3.867188 -9.8125 4.078125 -9.4375 C 4.296875 -9.0625 4.671875 -8.609375 5.203125 -8.078125 C 5.984375 -8.523438 6.523438 -8.941406 6.828125 -9.328125 C 7.140625 -9.710938 7.296875 -10.15625 7.296875 -10.65625 C 7.296875 -11.125 7.140625 -11.503906 6.828125 -11.796875 C 6.515625 -12.085938 6.097656 -12.234375 5.578125 -12.234375 C 5.035156 -12.234375 4.597656 -12.085938 4.265625 -11.796875 C 3.929688 -11.503906 3.765625 -11.113281 3.765625 -10.625 Z M 5.171875 -1.171875 C 6.628906 -1.171875 7.835938 -1.632812 8.796875 -2.5625 L 4.828125 -6.421875 C 4.160156 -6.003906 3.6875 -5.660156 3.40625 -5.390625 C 3.125 -5.128906 2.914062 -4.84375 2.78125 -4.53125 C 2.65625 -4.21875 2.59375 -3.867188 2.59375 -3.484375 C 2.59375 -2.773438 2.828125 -2.210938 3.296875 -1.796875 C 3.765625 -1.378906 4.390625 -1.171875 5.171875 -1.171875 Z M 1.03125 -3.4375 C 1.03125 -4.226562 1.238281 -4.925781 1.65625 -5.53125 C 2.070312 -6.132812 2.828125 -6.742188 3.921875 -7.359375 C 3.410156 -7.929688 3.0625 -8.363281 2.875 -8.65625 C 2.6875 -8.957031 2.535156 -9.269531 2.421875 -9.59375 C 2.316406 -9.914062 2.265625 -10.25 2.265625 -10.59375 C 2.265625 -11.5 2.5625 -12.207031 3.15625 -12.71875 C 3.75 -13.226562 4.578125 -13.484375 5.640625 -13.484375 C 6.617188 -13.484375 7.390625 -13.226562 7.953125 -12.71875 C 8.515625 -12.21875 8.796875 -11.515625 8.796875 -10.609375 C 8.796875 -9.960938 8.585938 -9.363281 8.171875 -8.8125 C 7.765625 -8.269531 7.085938 -7.71875 6.140625 -7.15625 L 9.828125 -3.609375 C 10.171875 -3.984375 10.441406 -4.421875 10.640625 -4.921875 C 10.847656 -5.429688 11.019531 -5.984375 11.15625 -6.578125 L 12.6875 -6.578125 C 12.269531 -4.847656 11.648438 -3.535156 10.828125 -2.640625 L 13.53125 0 L 11.453125 0 L 9.78125 -1.609375 C 9.0625 -0.972656 8.332031 -0.515625 7.59375 -0.234375 C 6.851562 0.046875 6.03125 0.1875 5.125 0.1875 C 3.820312 0.1875 2.8125 -0.132812 2.09375 -0.78125 C 1.382812 -1.425781 1.03125 -2.3125 1.03125 -3.4375 Z M 1.03125 -3.4375 "/></g></g></g><g fill="#000000" fill-opacity="1"><g transform="translate(192.903679, 313.405635)"><g/></g></g><g fill="#000000" fill-opacity="1"><g transform="translate(204.762896, 313.405635)"><g><path d="M 3.375 -5.515625 L 3.375 0 L 1.828125 0 L 1.828125 -13.28125 L 5.46875 -13.28125 C 7.09375 -13.28125 8.289062 -12.96875 9.0625 -12.34375 C 9.84375 -11.71875 10.234375 -10.78125 10.234375 -9.53125 C 10.234375 -7.769531 9.347656 -6.582031 7.578125 -5.96875 L 11.171875 0 L 9.34375 0 L 6.140625 -5.515625 Z M 3.375 -6.84375 L 5.484375 -6.84375 C 6.578125 -6.84375 7.375 -7.054688 7.875 -7.484375 C 8.382812 -7.921875 8.640625 -8.570312 8.640625 -9.4375 C 8.640625 -10.320312 8.378906 -10.957031 7.859375 -11.34375 C 7.347656 -11.726562 6.519531 -11.921875 5.375 -11.921875 L 3.375 -11.921875 Z M 3.375 -6.84375 "/></g></g></g><g fill="#000000" fill-opacity="1"><g transform="translate(223.285154, 313.405635)"><g><path d="M 5.796875 0.1875 C 4.328125 0.1875 3.164062 -0.257812 2.3125 -1.15625 C 1.46875 -2.050781 1.046875 -3.296875 1.046875 -4.890625 C 1.046875 -6.492188 1.4375 -7.765625 2.21875 -8.703125 C 3.007812 -9.648438 4.070312 -10.125 5.40625 -10.125 C 6.65625 -10.125 7.640625 -9.710938 8.359375 -8.890625 C 9.085938 -8.078125 9.453125 -7 9.453125 -5.65625 L 9.453125 -4.703125 L 2.609375 -4.703125 C 2.640625 -3.535156 2.929688 -2.648438 3.484375 -2.046875 C 4.046875 -1.441406 4.835938 -1.140625 5.859375 -1.140625 C 6.929688 -1.140625 7.988281 -1.363281 9.03125 -1.8125 L 9.03125 -0.46875 C 8.5 -0.238281 7.992188 -0.0703125 7.515625 0.03125 C 7.046875 0.132812 6.472656 0.1875 5.796875 0.1875 Z M 5.390625 -8.875 C 4.585938 -8.875 3.945312 -8.613281 3.46875 -8.09375 C 3 -7.570312 2.722656 -6.847656 2.640625 -5.921875 L 7.84375 -5.921875 C 7.84375 -6.878906 7.628906 -7.609375 7.203125 -8.109375 C 6.785156 -8.617188 6.179688 -8.875 5.390625 -8.875 Z M 5.390625 -8.875 "/></g></g></g><g fill="#000000" fill-opacity="1"><g transform="translate(240.745327, 313.405635)"><g><path d="M 8.015625 -2.71875 C 8.015625 -1.789062 7.671875 -1.070312 6.984375 -0.5625 C 6.296875 -0.0625 5.328125 0.1875 4.078125 0.1875 C 2.753906 0.1875 1.722656 -0.0195312 0.984375 -0.4375 L 0.984375 -1.84375 C 1.460938 -1.601562 1.972656 -1.410156 2.515625 -1.265625 C 3.066406 -1.128906 3.597656 -1.0625 4.109375 -1.0625 C 4.898438 -1.0625 5.503906 -1.1875 5.921875 -1.4375 C 6.347656 -1.6875 6.5625 -2.070312 6.5625 -2.59375 C 6.5625 -2.976562 6.394531 -3.304688 6.0625 -3.578125 C 5.726562 -3.859375 5.070312 -4.1875 4.09375 -4.5625 C 3.164062 -4.90625 2.503906 -5.203125 2.109375 -5.453125 C 1.722656 -5.710938 1.4375 -6.003906 1.25 -6.328125 C 1.0625 -6.660156 0.96875 -7.054688 0.96875 -7.515625 C 0.96875 -8.316406 1.296875 -8.953125 1.953125 -9.421875 C 2.609375 -9.890625 3.515625 -10.125 4.671875 -10.125 C 5.742188 -10.125 6.789062 -9.910156 7.8125 -9.484375 L 7.265625 -8.25 C 6.273438 -8.664062 5.375 -8.875 4.5625 -8.875 C 3.84375 -8.875 3.300781 -8.757812 2.9375 -8.53125 C 2.570312 -8.3125 2.390625 -8.003906 2.390625 -7.609375 C 2.390625 -7.335938 2.457031 -7.109375 2.59375 -6.921875 C 2.738281 -6.734375 2.960938 -6.554688 3.265625 -6.390625 C 3.566406 -6.222656 4.144531 -5.976562 5 -5.65625 C 6.175781 -5.226562 6.972656 -4.796875 7.390625 -4.359375 C 7.804688 -3.921875 8.015625 -3.375 8.015625 -2.71875 Z M 8.015625 -2.71875 "/></g></g></g><g fill="#000000" fill-opacity="1"><g transform="translate(256.644134, 313.405635)"><g><path d="M 4.8125 -1.0625 C 5.082031 -1.0625 5.335938 -1.082031 5.578125 -1.125 C 5.828125 -1.164062 6.023438 -1.207031 6.171875 -1.25 L 6.171875 -0.09375 C 6.003906 -0.0078125 5.757812 0.0546875 5.4375 0.109375 C 5.125 0.160156 4.84375 0.1875 4.59375 0.1875 C 2.664062 0.1875 1.703125 -0.828125 1.703125 -2.859375 L 1.703125 -8.78125 L 0.28125 -8.78125 L 0.28125 -9.5 L 1.703125 -10.125 L 2.34375 -12.25 L 3.21875 -12.25 L 3.21875 -9.953125 L 6.09375 -9.953125 L 6.09375 -8.78125 L 3.21875 -8.78125 L 3.21875 -2.921875 C 3.21875 -2.328125 3.359375 -1.867188 3.640625 -1.546875 C 3.921875 -1.222656 4.3125 -1.0625 4.8125 -1.0625 Z M 4.8125 -1.0625 "/></g></g></g><g fill="#000000" fill-opacity="1"><g transform="translate(270.237203, 313.405635)"><g><path d="M 10.1875 -4.984375 C 10.1875 -3.359375 9.773438 -2.085938 8.953125 -1.171875 C 8.140625 -0.265625 7.015625 0.1875 5.578125 0.1875 C 4.679688 0.1875 3.890625 -0.0195312 3.203125 -0.4375 C 2.515625 -0.863281 1.984375 -1.460938 1.609375 -2.234375 C 1.234375 -3.015625 1.046875 -3.929688 1.046875 -4.984375 C 1.046875 -6.609375 1.453125 -7.867188 2.265625 -8.765625 C 3.078125 -9.671875 4.203125 -10.125 5.640625 -10.125 C 7.023438 -10.125 8.128906 -9.660156 8.953125 -8.734375 C 9.773438 -7.816406 10.1875 -6.566406 10.1875 -4.984375 Z M 2.609375 -4.984375 C 2.609375 -3.710938 2.859375 -2.742188 3.359375 -2.078125 C 3.867188 -1.410156 4.617188 -1.078125 5.609375 -1.078125 C 6.597656 -1.078125 7.347656 -1.40625 7.859375 -2.0625 C 8.367188 -2.726562 8.625 -3.703125 8.625 -4.984375 C 8.625 -6.242188 8.367188 -7.203125 7.859375 -7.859375 C 7.347656 -8.523438 6.59375 -8.859375 5.59375 -8.859375 C 4.601562 -8.859375 3.859375 -8.53125 3.359375 -7.875 C 2.859375 -7.226562 2.609375 -6.265625 2.609375 -4.984375 Z M 2.609375 -4.984375 "/></g></g></g><g fill="#604d49" fill-opacity="1"><g transform="translate(90.024052, 293.333741)"><g><path d="M 18.0625 -19.21875 L 18.0625 -6.78125 C 18.0625 -5.363281 17.742188 -4.117188 17.109375 -3.046875 C 16.472656 -1.984375 15.550781 -1.164062 14.34375 -0.59375 C 13.144531 -0.0195312 11.726562 0.265625 10.09375 0.265625 C 7.625 0.265625 5.703125 -0.363281 4.328125 -1.625 C 2.960938 -2.894531 2.28125 -4.628906 2.28125 -6.828125 L 2.28125 -19.21875 L 6.34375 -19.21875 L 6.34375 -7.453125 C 6.34375 -5.972656 6.640625 -4.882812 7.234375 -4.1875 C 7.835938 -3.5 8.828125 -3.15625 10.203125 -3.15625 C 11.535156 -3.15625 12.5 -3.503906 13.09375 -4.203125 C 13.695312 -4.898438 14 -5.992188 14 -7.484375 L 14 -19.21875 Z M 18.0625 -19.21875 "/></g></g></g><g fill="#604d49" fill-opacity="1"><g transform="translate(110.370249, 293.333741)"><g><path d="M 19.46875 0 L 14.296875 0 L 5.921875 -14.53125 L 5.8125 -14.53125 C 5.976562 -11.96875 6.0625 -10.140625 6.0625 -9.046875 L 6.0625 0 L 2.421875 0 L 2.421875 -19.21875 L 7.5625 -19.21875 L 15.90625 -4.828125 L 16 -4.828125 C 15.863281 -7.328125 15.796875 -9.09375 15.796875 -10.125 L 15.796875 -19.21875 L 19.46875 -19.21875 Z M 19.46875 0 "/></g></g></g><g fill="#604d49" fill-opacity="1"><g transform="translate(132.254246, 293.333741)"><g><path d="M 10.578125 -16.109375 C 9.046875 -16.109375 7.859375 -15.53125 7.015625 -14.375 C 6.171875 -13.21875 5.75 -11.613281 5.75 -9.5625 C 5.75 -5.269531 7.359375 -3.125 10.578125 -3.125 C 11.929688 -3.125 13.566406 -3.460938 15.484375 -4.140625 L 15.484375 -0.71875 C 13.910156 -0.0625 12.148438 0.265625 10.203125 0.265625 C 7.398438 0.265625 5.257812 -0.582031 3.78125 -2.28125 C 2.300781 -3.976562 1.5625 -6.410156 1.5625 -9.578125 C 1.5625 -11.578125 1.925781 -13.328125 2.65625 -14.828125 C 3.382812 -16.335938 4.425781 -17.492188 5.78125 -18.296875 C 7.144531 -19.097656 8.742188 -19.5 10.578125 -19.5 C 12.441406 -19.5 14.316406 -19.046875 16.203125 -18.140625 L 14.890625 -14.828125 C 14.171875 -15.171875 13.445312 -15.46875 12.71875 -15.71875 C 12 -15.976562 11.285156 -16.109375 10.578125 -16.109375 Z M 10.578125 -16.109375 "/></g></g></g><g fill="#604d49" fill-opacity="1"><g transform="translate(149.40657, 293.333741)"><g><path d="M 2.421875 0 L 2.421875 -19.21875 L 6.5 -19.21875 L 6.5 -3.359375 L 14.296875 -3.359375 L 14.296875 0 Z M 2.421875 0 "/></g></g></g><g fill="#604d49" fill-opacity="1"><g transform="translate(164.61365, 293.333741)"><g><path d="M 13.484375 0 L 2.421875 0 L 2.421875 -19.21875 L 13.484375 -19.21875 L 13.484375 -15.875 L 6.5 -15.875 L 6.5 -11.65625 L 13 -11.65625 L 13 -8.328125 L 6.5 -8.328125 L 6.5 -3.359375 L 13.484375 -3.359375 Z M 13.484375 0 "/></g></g></g><g fill="#604d49" fill-opacity="1"><g transform="translate(179.689295, 293.333741)"><g/></g></g><g fill="#604d49" fill-opacity="1"><g transform="translate(186.681657, 293.333741)"><g><path d="M 10.578125 -16.109375 C 9.046875 -16.109375 7.859375 -15.53125 7.015625 -14.375 C 6.171875 -13.21875 5.75 -11.613281 5.75 -9.5625 C 5.75 -5.269531 7.359375 -3.125 10.578125 -3.125 C 11.929688 -3.125 13.566406 -3.460938 15.484375 -4.140625 L 15.484375 -0.71875 C 13.910156 -0.0625 12.148438 0.265625 10.203125 0.265625 C 7.398438 0.265625 5.257812 -0.582031 3.78125 -2.28125 C 2.300781 -3.976562 1.5625 -6.410156 1.5625 -9.578125 C 1.5625 -11.578125 1.925781 -13.328125 2.65625 -14.828125 C 3.382812 -16.335938 4.425781 -17.492188 5.78125 -18.296875 C 7.144531 -19.097656 8.742188 -19.5 10.578125 -19.5 C 12.441406 -19.5 14.316406 -19.046875 16.203125 -18.140625 L 14.890625 -14.828125 C 14.171875 -15.171875 13.445312 -15.46875 12.71875 -15.71875 C 12 -15.976562 11.285156 -16.109375 10.578125 -16.109375 Z M 10.578125 -16.109375 "/></g></g></g><g fill="#604d49" fill-opacity="1"><g transform="translate(203.83398, 293.333741)"><g><path d="M 19.859375 -9.640625 C 19.859375 -6.453125 19.066406 -4.003906 17.484375 -2.296875 C 15.910156 -0.585938 13.65625 0.265625 10.71875 0.265625 C 7.769531 0.265625 5.503906 -0.585938 3.921875 -2.296875 C 2.347656 -4.003906 1.5625 -6.457031 1.5625 -9.65625 C 1.5625 -12.851562 2.351562 -15.296875 3.9375 -16.984375 C 5.519531 -18.671875 7.785156 -19.515625 10.734375 -19.515625 C 13.691406 -19.515625 15.953125 -18.664062 17.515625 -16.96875 C 19.078125 -15.269531 19.859375 -12.828125 19.859375 -9.640625 Z M 5.84375 -9.640625 C 5.84375 -7.492188 6.25 -5.875 7.0625 -4.78125 C 7.875 -3.695312 9.09375 -3.15625 10.71875 -3.15625 C 13.96875 -3.15625 15.59375 -5.316406 15.59375 -9.640625 C 15.59375 -13.960938 13.972656 -16.125 10.734375 -16.125 C 9.117188 -16.125 7.898438 -15.578125 7.078125 -14.484375 C 6.253906 -13.398438 5.84375 -11.785156 5.84375 -9.640625 Z M 5.84375 -9.640625 "/></g></g></g><g fill="#604d49" fill-opacity="1"><g transform="translate(225.257948, 293.333741)"><g><path d="M 6.421875 0 L 2.421875 0 L 2.421875 -19.21875 L 13.4375 -19.21875 L 13.4375 -15.875 L 6.421875 -15.875 L 6.421875 -10.921875 L 12.953125 -10.921875 L 12.953125 -7.59375 L 6.421875 -7.59375 Z M 6.421875 0 "/></g></g></g><g fill="#604d49" fill-opacity="1"><g transform="translate(240.031285, 293.333741)"><g><path d="M 6.421875 0 L 2.421875 0 L 2.421875 -19.21875 L 13.4375 -19.21875 L 13.4375 -15.875 L 6.421875 -15.875 L 6.421875 -10.921875 L 12.953125 -10.921875 L 12.953125 -7.59375 L 6.421875 -7.59375 Z M 6.421875 0 "/></g></g></g><g fill="#604d49" fill-opacity="1"><g transform="translate(254.804622, 293.333741)"><g><path d="M 13.484375 0 L 2.421875 0 L 2.421875 -19.21875 L 13.484375 -19.21875 L 13.484375 -15.875 L 6.5 -15.875 L 6.5 -11.65625 L 13 -11.65625 L 13 -8.328125 L 6.5 -8.328125 L 6.5 -3.359375 L 13.484375 -3.359375 Z M 13.484375 0 "/></g></g></g><g fill="#604d49" fill-opacity="1"><g transform="translate(269.880267, 293.333741)"><g><path d="M 13.484375 0 L 2.421875 0 L 2.421875 -19.21875 L 13.484375 -19.21875 L 13.484375 -15.875 L 6.5 -15.875 L 6.5 -11.65625 L 13 -11.65625 L 13 -8.328125 L 6.5 -8.328125 L 6.5 -3.359375 L 13.484375 -3.359375 Z M 13.484375 0 "/></g></g></g></svg>